<?xml version="1.0" encoding="UTF-8"?>
<svg version="1.1" xmlns="http://www.w3.org/2000/svg" width="213" height="228">
<path d="M0 0 C-0.45676652 8.03279053 -1.55409174 15.85939474 -2.98364258 23.76708984 C-3.65692228 27.56390495 -4.17722391 31.12419019 -4 35 C-3.32195312 34.12859375 -2.64390625 33.2571875 -1.9453125 32.359375 C4.22905797 24.44912565 10.52616519 16.66749199 17 9 C21.5927844 9.52057154 24.19033282 11.32411057 27.8125 14.125 C28.85535156 14.93066406 29.89820313 15.73632812 30.97265625 16.56640625 C34.74998606 19.60289202 38.42407211 22.72907772 42 26 C41.50443263 30.29491718 38.76174037 32.90894642 36 36 C30.62634908 42.05898611 25.81007678 48.49036276 21 55 C22.28632324 54.50802124 22.28632324 54.50802124 23.59863281 54.00610352 C26.78853239 52.78731298 29.97920124 51.57058058 33.17041016 50.35522461 C34.54995488 49.82935214 35.92919026 49.30266743 37.30810547 48.77514648 C39.29313173 48.0159133 41.27926156 47.25963298 43.265625 46.50390625 C44.45961914 46.04830322 45.65361328 45.5927002 46.88378906 45.12329102 C49.26151077 44.26620095 51.53619091 43.53595847 54 43 C65 63.29896907 65 63.29896907 65 72 C62.1271148 73.23429929 59.2518209 74.46243177 56.375 75.6875 C55.58609375 76.02716797 54.7971875 76.36683594 53.984375 76.71679688 C46.7590084 79.78471047 39.40846304 82.41273675 32 85 C32.95366455 85.14622803 33.9073291 85.29245605 34.88989258 85.44311523 C38.42936453 85.9865391 41.96829831 86.53340001 45.50708008 87.08129883 C47.03851094 87.31791406 48.570086 87.55359801 50.10180664 87.78833008 C52.30393463 88.12596591 54.50552168 88.46695177 56.70703125 88.80859375 C57.39150833 88.91280136 58.07598541 89.01700897 58.78120422 89.12437439 C61.63383282 89.56991888 64.25376532 90.08458844 67 91 C67.52943486 98.50032713 66.7374175 105.38513716 65.125 112.6875 C64.95129883 113.48978027 64.77759766 114.29206055 64.59863281 115.11865234 C64.13773818 117.09726191 63.57700493 119.05208188 63 121 C59.85553446 122.57223277 56.7298295 121.52903768 53.3671875 121.00390625 C52.61535187 120.89151108 51.86351624 120.77911591 51.08889771 120.66331482 C48.68332826 120.30229982 46.27920125 119.93250624 43.875 119.5625 C42.24618102 119.31647878 40.61727566 119.07102877 38.98828125 118.82617188 C34.99115425 118.22407602 30.99529918 117.61410281 27 117 C35.95630411 124.05794455 44.94653537 131.06703124 54 138 C53.15399639 144.05950087 49.85207762 147.44039791 46 152 C45.23300781 152.92554688 44.46601563 153.85109375 43.67578125 154.8046875 C42.89589844 155.71476563 42.11601562 156.62484375 41.3125 157.5625 C40.58675781 158.40941406 39.86101562 159.25632813 39.11328125 160.12890625 C37 162 37 162 33 162 C31.12817383 160.91772461 31.12817383 160.91772461 29.20703125 159.40234375 C28.49796631 158.8508667 27.78890137 158.29938965 27.05834961 157.73120117 C26.31721924 157.13927979 25.57608887 156.5473584 24.8125 155.9375 C24.05525635 155.34493408 23.2980127 154.75236816 22.51782227 154.1418457 C21.01882907 152.96770673 19.52289157 151.78965452 18.03027344 150.60742188 C15.51392823 148.61516396 12.976599 146.65063725 10.4375 144.6875 C9.2910551 143.79244945 8.14491186 142.89701072 7 142 C7.36351562 142.825 7.72703125 143.65 8.1015625 144.5 C11.00076349 151.16072842 13.80728819 157.85310427 16.4375 164.625 C16.70836426 165.29917969 16.97922852 165.97335938 17.25830078 166.66796875 C18.25361854 169.27647855 19.01786247 171.49729913 18.91796875 174.30859375 C15.45890834 180.68209654 2.84756722 182.93460453 -3.77734375 185.08203125 C-7 186 -7 186 -10 186 C-10.60982399 184.47544001 -11.2196275 182.95087183 -11.8293457 181.42626953 C-12.36400314 180.08987202 -12.89900193 178.75361102 -13.43432617 177.41748047 C-14.86393979 173.84783431 -16.28763927 170.27603841 -17.69921875 166.69921875 C-17.96976074 166.01609619 -18.24030273 165.33297363 -18.51904297 164.62915039 C-19.04227701 163.3075417 -19.5634832 161.98512812 -20.08251953 160.66186523 C-21.15688119 157.59915068 -21.15688119 157.59915068 -23 155 C-23.21934204 156.44620728 -23.21934204 156.44620728 -23.44311523 157.92163086 C-23.98502881 161.48737656 -24.53233339 165.0522771 -25.08129883 168.61694336 C-25.31845668 170.16196419 -25.55413785 171.70721241 -25.78833008 173.25268555 C-26.12456545 175.46984858 -26.46604575 177.6861484 -26.80859375 179.90234375 C-26.91280136 180.5971434 -27.01700897 181.29194305 -27.12437439 182.00779724 C-27.88612829 186.88612829 -27.88612829 186.88612829 -29 188 C-39.46838808 189.06428612 -48.99499061 186.68397857 -59 184 C-59.29919682 176.52007951 -58.1530795 169.3781506 -57 162 C-56.71382812 160.12248047 -56.71382812 160.12248047 -56.421875 158.20703125 C-55.95319391 155.13717013 -55.47909552 152.06825002 -55 149 C-59.41341584 153.96468747 -63.67589125 159.00356936 -67.75 164.25 C-68.21792969 164.848125 -68.68585938 165.44625 -69.16796875 166.0625 C-71.47671737 169.0187447 -73.76363732 171.98836492 -76 175 C-85.9429084 173.8548387 -94.48795114 164.02918215 -101 157 C-99.71119914 153.30030797 -98.25659021 150.89101467 -95.5625 148.0625 C-91.82804837 144.00480854 -88.38854846 139.78307332 -85 135.4375 C-84.50701416 134.80529541 -84.01402832 134.17309082 -83.50610352 133.52172852 C-82.33513005 132.01625034 -81.16722764 130.50838425 -80 129 C-91.0705766 132.82619029 -102.10774507 136.68682606 -113 141 C-124.09242083 119.93686381 -124.09242083 119.93686381 -123.96313477 113.03076172 C-122.41163275 109.75943251 -119.34395427 109.14225151 -116.12109375 107.984375 C-115.51269653 107.75250488 -114.90429932 107.52063477 -114.27746582 107.28173828 C-112.00394187 106.42056139 -109.72006428 105.58692119 -107.4375 104.75 C-102.343125 102.8525 -97.24875 100.955 -92 99 C-103.22 97.02 -114.44 95.04 -126 93 C-126 76.89527027 -126 76.89527027 -124 69.625 C-123.80921875 68.87734375 -123.6184375 68.1296875 -123.421875 67.359375 C-122.96281245 65.56903105 -122.48375092 63.78383153 -122 62 C-109.9611363 63.42919471 -97.98211367 65.15848663 -86 67 C-94.81892984 59.73324174 -103.63918774 52.56446792 -113 46 C-112.18296355 39.44002616 -107.9478586 35.07270802 -104 30 C-103.443125 29.27425781 -102.88625 28.54851563 -102.3125 27.80078125 C-99.42686854 24.21628592 -97.43274164 22.55704706 -93 21 C-91.54166667 22.16666667 -90.08333333 23.33333333 -88.625 24.5 C-87.71363281 25.22832031 -86.80226562 25.95664062 -85.86328125 26.70703125 C-84.02426115 28.17975267 -82.18807131 29.65601919 -80.35546875 31.13671875 C-79.51628906 31.81347656 -78.67710938 32.49023438 -77.8125 33.1875 C-77.05582031 33.79980469 -76.29914063 34.41210938 -75.51953125 35.04296875 C-72.40984117 37.45840244 -69.21522519 39.72696534 -66 42 C-66.44730469 40.92363281 -66.89460938 39.84726562 -67.35546875 38.73828125 C-69.25143177 34.16473697 -71.13132974 29.58476074 -73 25 C-73.27134766 24.33452148 -73.54269531 23.66904297 -73.82226562 22.98339844 C-74.53586527 21.22152643 -75.23707957 19.45465269 -75.9375 17.6875 C-76.33839844 16.68074219 -76.73929688 15.67398438 -77.15234375 14.63671875 C-78 12 -78 12 -78 8 C-57.33333333 -2 -57.33333333 -2 -49 -2 C-45.04 8.23 -41.08 18.46 -37 29 C-35.3217992 21.46477697 -35.3217992 21.46477697 -34 13.90625 C-33.835 12.85695313 -33.67 11.80765625 -33.5 10.7265625 C-33.16193682 8.54499854 -32.82873253 6.36267695 -32.5 4.1796875 C-32.335 3.14070313 -32.17 2.10171875 -32 1.03125 C-31.855625 0.08830078 -31.71125 -0.85464844 -31.5625 -1.82617188 C-31.2840625 -2.9022168 -31.2840625 -2.9022168 -31 -4 C-22.77486469 -8.11256765 -8.2730166 -2.49117447 0 0 Z " fill="#EC6850" transform="translate(136,22)"/>
<path d="M0 0 C4.26951985 6.96895821 10 19.59200535 10 28 C7.1271148 29.23429929 4.2518209 30.46243177 1.375 31.6875 C0.58609375 32.02716797 -0.2028125 32.36683594 -1.015625 32.71679688 C-8.2409916 35.78471047 -15.59153696 38.41273675 -23 41 C-22.04633545 41.14622803 -21.0926709 41.29245605 -20.11010742 41.44311523 C-16.57063547 41.9865391 -13.03170169 42.53340001 -9.49291992 43.08129883 C-7.96148906 43.31791406 -6.429914 43.55359801 -4.89819336 43.78833008 C-2.69606537 44.12596591 -0.49447832 44.46695177 1.70703125 44.80859375 C2.39150833 44.91280136 3.07598541 45.01700897 3.78120422 45.12437439 C6.63383282 45.56991888 9.25376532 46.08458844 12 47 C12.52943486 54.50032713 11.7374175 61.38513716 10.125 68.6875 C9.95129883 69.48978027 9.77759766 70.29206055 9.59863281 71.11865234 C9.13773818 73.09726191 8.57700493 75.05208188 8 77 C4.85553446 78.57223277 1.7298295 77.52903768 -1.6328125 77.00390625 C-2.38464813 76.89151108 -3.13648376 76.77911591 -3.91110229 76.66331482 C-6.31667174 76.30229982 -8.72079875 75.93250624 -11.125 75.5625 C-12.75381898 75.31647878 -14.38272434 75.07102877 -16.01171875 74.82617188 C-20.00884575 74.22407602 -24.00470082 73.61410281 -28 73 C-19.04369589 80.05794455 -10.05346463 87.06703124 -1 94 C-1.84600361 100.05950087 -5.14792238 103.44039791 -9 108 C-9.76699219 108.92554688 -10.53398437 109.85109375 -11.32421875 110.8046875 C-12.10410156 111.71476562 -12.88398438 112.62484375 -13.6875 113.5625 C-14.41324219 114.40941406 -15.13898438 115.25632812 -15.88671875 116.12890625 C-18 118 -18 118 -22 118 C-23.84008789 116.94946289 -23.84008789 116.94946289 -25.72265625 115.47265625 C-26.42084473 114.93278076 -27.1190332 114.39290527 -27.83837891 113.83666992 C-28.93931885 112.95845581 -28.93931885 112.95845581 -30.0625 112.0625 C-30.81966309 111.46348877 -31.57682617 110.86447754 -32.35693359 110.24731445 C-33.87539838 109.04491387 -35.39171385 107.83979352 -36.90576172 106.63183594 C-38.67541685 105.25291604 -40.46297922 103.95719561 -42.31640625 102.6953125 C-50.76874465 96.65288978 -53.56654496 89.44092167 -57 80 C-57.53632312 78.5979074 -58.07536629 77.19685211 -58.6171875 75.796875 C-59.65069919 73.1090467 -60.65797542 70.41385757 -61.640625 67.70703125 C-62.49398135 65.37991868 -63.37537316 63.06269774 -64.296875 60.76171875 C-67.92915778 51.56905789 -67.92915778 51.56905789 -66 47 C-64.43836549 44.94923284 -62.76931486 43.0695336 -61.01171875 41.18359375 C-58.97212849 38.96974724 -57.10994114 36.67865192 -55.25 34.3125 C-51.98070304 30.19395207 -48.64051583 26.14374516 -45.25 22.125 C-44.79012695 21.57755127 -44.33025391 21.03010254 -43.85644531 20.46606445 C-42.58531527 18.96510336 -41.29321455 17.48197568 -40 16 C-39.4428833 15.34797607 -38.8857666 14.69595215 -38.31176758 14.02416992 C-35.34425908 11.42583715 -32.12766439 10.13133411 -28.49609375 8.73046875 C-27.77639908 8.44520828 -27.05670441 8.15994781 -26.31520081 7.86604309 C-24.80011708 7.26860677 -23.28296693 6.6763874 -21.76391602 6.08911133 C-19.43605853 5.18694135 -17.11737454 4.26368972 -14.79882812 3.33789062 C-13.32341682 2.75914 -11.84752103 2.18162263 -10.37109375 1.60546875 C-9.67729111 1.32849655 -8.98348846 1.05152435 -8.2686615 0.76615906 C-3.34531116 -1.11510372 -3.34531116 -1.11510372 0 0 Z " fill="#EB6750" transform="translate(191,66)"/>
<path d="M0 0 C4.5927844 0.52057154 7.19033282 2.32411057 10.8125 5.125 C11.85535156 5.93066406 12.89820313 6.73632812 13.97265625 7.56640625 C17.74998606 10.60289202 21.42407211 13.72907772 25 17 C24.49242703 21.24331005 21.8524768 23.81123349 19.125 26.875 C14.40211644 32.29003028 9.92889454 37.84446242 5.61767578 43.59326172 C2.32442624 47.89185792 2.32442624 47.89185792 -1 49 C-1.67540758 50.32892695 -2.33958779 51.66355773 -3 53 C-4.8011338 55.18586966 -6.62403044 57.31821365 -8.5 59.4375 C-14.29622676 66.08412143 -19.70573244 72.94767395 -25 80 C-25.58652344 80.72058594 -26.17304687 81.44117187 -26.77734375 82.18359375 C-28.27338332 84.0412161 -28.27338332 84.0412161 -28 86.9375 C-27.08118869 91.63142736 -25.16655739 96.0199026 -23.3984375 100.4453125 C-21.5331133 105.18677905 -19.87378365 109.99303594 -18.2109375 114.80859375 C-17.04505194 118.05756987 -17.04505194 118.05756987 -15.3515625 121.22265625 C-14 124 -14 124 -14 127 C-16.84124191 125.6799177 -19.16223933 124.20153376 -21.57421875 122.20703125 C-22.23808594 121.66199951 -22.90195313 121.11696777 -23.5859375 120.55541992 C-24.27945313 119.98025635 -24.97296875 119.40509277 -25.6875 118.8125 C-27.11790839 117.63731307 -28.54889467 116.46282916 -29.98046875 115.2890625 C-30.66931152 114.72348633 -31.3581543 114.15791016 -32.06787109 113.57519531 C-35.65838798 110.64797583 -39.31888025 107.81196647 -43 105 C-47.31270152 106.54454892 -49.48113603 109.84261663 -52.125 113.375 C-53.09229592 114.63653293 -54.06107867 115.89692704 -55.03125 117.15625 C-55.52109375 117.79433594 -56.0109375 118.43242187 -56.515625 119.08984375 C-58.82832501 122.0659235 -61.21584662 124.97677701 -63.625 127.875 C-64.85089844 129.35613281 -64.85089844 129.35613281 -66.1015625 130.8671875 C-66.72804688 131.57101563 -67.35453125 132.27484375 -68 133 C-68.33 133 -68.66 133 -69 133 C-68.35150953 124.54147566 -67.21658242 116.19659145 -65.9375 107.8125 C-65.75123047 106.57435547 -65.56496094 105.33621094 -65.37304688 104.06054688 C-64.91820399 101.03992362 -64.46046929 98.01976976 -64 95 C-67.3 94.67 -70.6 94.34 -74 94 C-73.06692579 92.55962331 -72.12834923 91.12281015 -71.1875 89.6875 C-70.66542969 88.88699219 -70.14335938 88.08648437 -69.60546875 87.26171875 C-68 85 -68 85 -66.23828125 83.58203125 C-64.70516693 81.98061512 -64.70516693 81.98061512 -65.14453125 79.30859375 C-66.13369266 75.48293295 -67.34244652 71.77418274 -68.6875 68.0625 C-68.95079102 67.32539795 -69.21408203 66.5882959 -69.48535156 65.82885742 C-71.73976479 59.57974698 -74.18243683 53.41540268 -76.703125 47.26953125 C-77.91737807 44.20829685 -78.99169309 41.13431251 -80 38 C-75.31268861 40.57983805 -71.35513547 43.85479332 -67.25 47.25 C-65.82597646 48.4159213 -64.40150009 49.58128974 -62.9765625 50.74609375 C-62.29368164 51.30538574 -61.61080078 51.86467773 -60.90722656 52.44091797 C-58.4927111 54.41468854 -56.06835803 56.3745271 -53.625 58.3125 C-52.95726563 58.84488281 -52.28953125 59.37726563 -51.6015625 59.92578125 C-50.04457996 61.18567841 -50.04457996 61.18567841 -48 61 C-46.71536479 59.43581846 -46.71536479 59.43581846 -45.5 57.5 C-44.21875 55.53125 -44.21875 55.53125 -43 54 C-42.34 54 -41.68 54 -41 54 C-40.7628125 53.28714844 -40.525625 52.57429688 -40.28125 51.83984375 C-38.78539349 48.52433253 -36.89687602 46.29691077 -34.5 43.5625 C-30.76137441 39.21992689 -27.33115932 34.76798295 -24.0625 30.0625 C-19.9005589 24.10077837 -15.37768466 18.56687572 -10.62890625 13.06640625 C-6.958171 8.81416839 -3.47582911 4.41201231 0 0 Z " fill="#020102" transform="translate(153,31)"/>
<path d="M0 0 C3.98626607 1.71399647 7.20127757 4.37553888 10.5625 7.0625 C11.17585205 7.5476709 11.7892041 8.0328418 12.42114258 8.53271484 C17.27625667 12.3853407 22.05312924 16.32662464 26.79296875 20.3203125 C28.98086982 22.17301251 28.98086982 22.17301251 32 23 C33.0715332 24.69555664 33.0715332 24.69555664 34.05078125 26.91015625 C34.60016357 28.13702148 34.60016357 28.13702148 35.16064453 29.38867188 C35.54075684 30.27103516 35.92086914 31.15339844 36.3125 32.0625 C36.90200439 33.40731445 36.90200439 33.40731445 37.50341797 34.77929688 C39.97652616 40.47885695 42.37428701 46.20883962 44.625 52 C44.88450439 52.65105713 45.14400879 53.30211426 45.41137695 53.97290039 C46.35269828 56.48186967 47.01680096 58.59047651 46.90625 61.28515625 C43.52904447 67.67564429 30.81949167 69.94370506 24.22265625 72.08203125 C21 73 21 73 18 73 C17.39017601 71.47544001 16.7803725 69.95087183 16.1706543 68.42626953 C15.63599686 67.08987202 15.10099807 65.75361102 14.56567383 64.41748047 C13.13606021 60.84783431 11.71236073 57.27603841 10.30078125 53.69921875 C10.03023926 53.01609619 9.75969727 52.33297363 9.48095703 51.62915039 C8.95772299 50.3075417 8.4365168 48.98512812 7.91748047 47.66186523 C6.84311881 44.59915068 6.84311881 44.59915068 5 42 C4.85377197 42.96413818 4.70754395 43.92827637 4.55688477 44.92163086 C4.01497119 48.48737656 3.46766661 52.0522771 2.91870117 55.61694336 C2.68154332 57.16196419 2.44586215 58.70721241 2.21166992 60.25268555 C1.87543455 62.46984858 1.53395425 64.6861484 1.19140625 66.90234375 C1.08719864 67.5971434 0.98299103 68.29194305 0.87562561 69.00779724 C0.11387171 73.88612829 0.11387171 73.88612829 -1 75 C-11.46838808 76.06428612 -20.99499061 73.68397857 -31 71 C-31.33024888 63.82626054 -30.25568536 56.97776274 -29.08349609 49.90869141 C-28.74997339 47.87483774 -28.43916536 45.83829644 -28.12890625 43.80078125 C-27.80986328 41.85365234 -27.80986328 41.85365234 -27.484375 39.8671875 C-27.29584961 38.69269043 -27.10732422 37.51819336 -26.91308594 36.30810547 C-25.49602615 31.17410545 -22.41567087 27.36691174 -19.08203125 23.30078125 C-18.55375732 22.65367187 -18.0254834 22.0065625 -17.48120117 21.33984375 C-16.93052979 20.67082031 -16.3798584 20.00179687 -15.8125 19.3125 C-14.95845581 18.26835937 -14.95845581 18.26835937 -14.0871582 17.203125 C-12.39371158 15.13354218 -10.69690699 13.06674569 -9 11 C-8.04910222 9.83754783 -7.09855098 8.67481205 -6.1484375 7.51171875 C-4.10104104 5.00609546 -2.05158607 2.50219283 0 0 Z " fill="#1A5A7C" transform="translate(108,135)"/>
<path d="M0 0 C-0.57245778 8.20278957 -1.52836484 16.26435006 -2.875 24.375 C-3.03613281 25.41527344 -3.19726562 26.45554687 -3.36328125 27.52734375 C-4.92918767 37.03203158 -8.37199848 42.78634742 -14.5 50.0625 C-18.00349256 54.24571672 -21.26062556 58.26369839 -24 63 C-25.64646685 64.68662458 -27.31183067 66.35511706 -29 68 C-29.66 68.99 -30.32 69.98 -31 71 C-33.80979639 69.67883746 -36.22339001 68.1980349 -38.6875 66.3125 C-39.38045166 65.78438721 -40.07340332 65.25627441 -40.78735352 64.7121582 C-43.82084951 62.36482207 -46.84283278 60.00290001 -49.86279297 57.63818359 C-51.71234221 56.22049163 -53.58659077 54.87409387 -55.50390625 53.55078125 C-64.84349241 46.71606494 -68.07925309 38.49903463 -72 28 C-72.60379953 26.47278026 -73.21051083 24.94670808 -73.8203125 23.421875 C-78 12.7867608 -78 12.7867608 -78 8 C-57.33333333 -2 -57.33333333 -2 -49 -2 C-45.04 8.23 -41.08 18.46 -37 29 C-35.3217992 21.46477697 -35.3217992 21.46477697 -34 13.90625 C-33.835 12.85695313 -33.67 11.80765625 -33.5 10.7265625 C-33.16193682 8.54499854 -32.82873253 6.36267695 -32.5 4.1796875 C-32.335 3.14070313 -32.17 2.10171875 -32 1.03125 C-31.855625 0.08830078 -31.71125 -0.85464844 -31.5625 -1.82617188 C-31.2840625 -2.9022168 -31.2840625 -2.9022168 -31 -4 C-22.77486469 -8.11256765 -8.2730166 -2.49117447 0 0 Z " fill="#1A597C" transform="translate(136,22)"/>
<path d="M0 0 C4.5927844 0.52057154 7.19033282 2.32411057 10.8125 5.125 C11.85535156 5.93066406 12.89820313 6.73632812 13.97265625 7.56640625 C17.74998606 10.60289202 21.42407211 13.72907772 25 17 C24.49242703 21.24331005 21.8524768 23.81123349 19.125 26.875 C14.40211644 32.29003028 9.92889454 37.84446242 5.61767578 43.59326172 C2.32442624 47.89185792 2.32442624 47.89185792 -1 49 C-1.67540758 50.32892695 -2.33958779 51.66355773 -3 53 C-4.8011338 55.18586966 -6.62403044 57.31821365 -8.5 59.4375 C-14.29622676 66.08412143 -19.70573244 72.94767395 -25 80 C-25.81791016 81.07894531 -25.81791016 81.07894531 -26.65234375 82.1796875 C-27.81635397 83.75194479 -28.91486792 85.37230189 -30 87 C-30.8098159 84.19968008 -31.0886435 81.86671067 -30.9140625 78.9609375 C-30.87023437 78.21585937 -30.82640625 77.47078125 -30.78125 76.703125 C-30.7296875 75.93484375 -30.678125 75.1665625 -30.625 74.375 C-30.58117187 73.59898438 -30.53734375 72.82296875 -30.4921875 72.0234375 C-30.13225446 66.26450893 -30.13225446 66.26450893 -29 64 C-28.67323716 61.83478177 -28.39197893 59.66262636 -28.1328125 57.48828125 C-27.96784403 56.15945597 -27.80246603 54.83068148 -27.63671875 53.50195312 C-27.38005213 51.41366464 -27.12649056 49.32515488 -26.88037109 47.2355957 C-26.64060249 45.21438004 -26.38760123 43.19515135 -26.1328125 41.17578125 C-25.98730957 39.96833252 -25.84180664 38.76088379 -25.69189453 37.5168457 C-24.59662841 31.94969379 -22.60350613 27.27779777 -18.92578125 22.94921875 C-18.05300537 21.90785767 -18.05300537 21.90785767 -17.16259766 20.84545898 C-16.55206543 20.13333252 -15.9415332 19.42120605 -15.3125 18.6875 C-14.05547649 17.19313979 -12.79896394 15.69834961 -11.54296875 14.203125 C-10.93630371 13.48576172 -10.32963867 12.76839844 -9.70458984 12.02929688 C-6.39015798 8.08349944 -3.19712902 4.04109165 0 0 Z " fill="#C20D2D" transform="translate(153,31)"/>
<path d="M0 0 C2.6503703 0.28396825 4.94878042 0.69243687 7.5 1.375 C7.19474079 10.76172079 6.14980257 20.02015365 4.8125 29.3125 C4.67618164 30.37782959 4.53986328 31.44315918 4.39941406 32.54077148 C3.31482952 39.66604467 1.31265839 44.0424386 -3.5 49.375 C-4.15484375 50.20386719 -4.8096875 51.03273437 -5.484375 51.88671875 C-6.06703125 52.60472656 -6.6496875 53.32273438 -7.25 54.0625 C-12.10131661 60.08903866 -16.80000356 66.23033252 -21.5 72.375 C-31.4429084 71.2298387 -39.98795114 61.40418215 -46.5 54.375 C-45.21119914 50.67530797 -43.75659021 48.26601467 -41.0625 45.4375 C-37.45940257 41.52650152 -34.17827435 37.45873298 -30.9375 33.25 C-27.63703806 28.98207441 -24.31430911 25.06042506 -20.38671875 21.3515625 C-16.61980317 17.40526999 -13.38149783 12.99426128 -10.05078125 8.6796875 C-9.61652832 8.12071777 -9.18227539 7.56174805 -8.73486328 6.98583984 C-7.59459737 5.49839926 -6.48895844 3.98458425 -5.38671875 2.46875 C-3.5 0.375 -3.5 0.375 0 0 Z " fill="#C20D2D" transform="translate(81.5,124.625)"/>
<path d="M0 0 C1.87890625 0.6640625 1.87890625 0.6640625 4 2 C5.08984375 4.3984375 5.08984375 4.3984375 5.9375 7.375 C7.24854696 11.78011778 8.80328177 15.74555701 10.8125 19.875 C13.71548919 26.85471784 13.12751375 32.68402487 12 40 C11.85288574 41.00579102 11.70577148 42.01158203 11.55419922 43.04785156 C10.72488277 48.68066691 9.85909106 54.30729814 8.9375 59.92578125 C8.78152344 60.87880127 8.62554687 61.83182129 8.46484375 62.8137207 C8 65 8 65 7 66 C-3.46838808 67.06428612 -12.99499061 64.68397857 -23 62 C-23.33024888 54.82626054 -22.25568536 47.97776274 -21.08349609 40.90869141 C-20.74997339 38.87483774 -20.43916536 36.83829644 -20.12890625 34.80078125 C-19.80986328 32.85365234 -19.80986328 32.85365234 -19.484375 30.8671875 C-19.20158691 29.10544189 -19.20158691 29.10544189 -18.91308594 27.30810547 C-17.45716256 22.03330285 -14.23993323 18.14713612 -10.80078125 13.984375 C-10.23166016 13.29085937 -9.66253906 12.59734375 -9.07617188 11.8828125 C-8.2031543 10.82707031 -8.2031543 10.82707031 -7.3125 9.75 C-6.14022722 8.32952614 -4.96957252 6.90771489 -3.80078125 5.484375 C-3.28684814 4.86272461 -2.77291504 4.24107422 -2.2434082 3.60058594 C-0.92243795 2.00783118 -0.92243795 2.00783118 0 0 Z " fill="#34BEAD" transform="translate(100,144)"/>
<path d="M0 0 C0.52943486 7.50032713 -0.2625825 14.38513716 -1.875 21.6875 C-2.04870117 22.48978027 -2.22240234 23.29206055 -2.40136719 24.11865234 C-2.86226182 26.09726191 -3.42299507 28.05208188 -4 30 C-8.5847981 32.29239905 -16.29855315 29.76541504 -21.29980469 29.00634766 C-22.99655338 28.75508472 -24.69553169 28.51838173 -26.39648438 28.29736328 C-38.41818782 26.73228247 -45.86439755 24.32760338 -55 16 C-56.1832658 15.07374654 -57.37411971 14.15694246 -58.578125 13.2578125 C-59.45984375 12.55398437 -60.3415625 11.85015625 -61.25 11.125 C-62.16265625 10.40570313 -63.0753125 9.68640625 -64.015625 8.9453125 C-64.67046875 8.30335937 -65.3253125 7.66140625 -66 7 C-66 6.01 -66 5.02 -66 4 C-62.8606793 2.7822031 -59.71897644 1.57240629 -56.5703125 0.37890625 C-54.42480941 -0.44971803 -52.28988369 -1.30784821 -50.1796875 -2.22265625 C-35.39856572 -8.3777801 -14.85792463 -4.95264154 0 0 Z " fill="#92B6BB" transform="translate(203,113)"/>
<path d="M0 0 C-0.57245778 8.20278957 -1.52836484 16.26435006 -2.875 24.375 C-3.03613281 25.41527344 -3.19726562 26.45554687 -3.36328125 27.52734375 C-4.92968437 37.03504642 -8.39218213 42.82541279 -14.5 50.125 C-15.65683718 51.5229518 -16.81310558 52.92137452 -17.96875 54.3203125 C-18.47857422 54.93148926 -18.98839844 55.54266602 -19.51367188 56.17236328 C-20.58134769 57.4852117 -21.59260178 58.84469798 -22.56445312 60.22998047 C-23.27504883 61.10614014 -23.27504883 61.10614014 -24 62 C-24.66 62 -25.32 62 -26 62 C-26.38671875 60.96101563 -26.7734375 59.92203125 -27.171875 58.8515625 C-27.42243652 58.18068604 -27.67299805 57.50980957 -27.93115234 56.81860352 C-28.47998332 55.34834523 -29.02716717 53.87747111 -29.57275391 52.40600586 C-31.33026134 47.69212355 -33.20691334 43.06486451 -35.3359375 38.50390625 C-37.51889812 30.27286062 -35.32975027 21.37310377 -33.97363281 13.13134766 C-33.62150261 10.97861891 -33.28679118 8.82362787 -32.953125 6.66796875 C-32.73280537 5.29931223 -32.51148838 3.9308158 -32.2890625 2.5625 C-32.09006348 1.32628906 -31.89106445 0.09007812 -31.68603516 -1.18359375 C-31.45964355 -2.11300781 -31.23325195 -3.04242187 -31 -4 C-22.77486469 -8.11256765 -8.2730166 -2.49117447 0 0 Z " fill="#34BEAD" transform="translate(136,22)"/>
<path d="M0 0 C5.34483763 0.58956119 10.67184744 1.27812767 16 2 C16.94713867 2.12358887 17.89427734 2.24717773 18.87011719 2.37451172 C21.89782597 2.78146182 24.9170099 3.23027096 27.9375 3.6875 C28.895354 3.81157227 29.85320801 3.93564453 30.84008789 4.06347656 C38.22584883 5.2406844 42.47096352 8.09653232 48 13 C49.38065474 14.1104466 50.76721062 15.21360441 52.16015625 16.30859375 C53.46144972 17.35092334 54.76223707 18.39388514 56.0625 19.4375 C56.73732422 19.97826172 57.41214844 20.51902344 58.10742188 21.07617188 C59.73874101 22.38354111 61.36943953 23.69168468 63 25 C60.54530205 26.6364653 58.64946725 27.62268937 55.9453125 28.65625 C55.16542969 28.95660156 54.38554688 29.25695312 53.58203125 29.56640625 C52.77121094 29.87449219 51.96039063 30.18257812 51.125 30.5 C49.52337738 31.11442665 47.92181329 31.72900588 46.3203125 32.34375 C45.61148926 32.61380859 44.90266602 32.88386719 44.17236328 33.16210938 C42.61955112 33.76103625 41.08495429 34.40807332 39.56494141 35.0859375 C30.31393728 38.38269739 19.05863413 35.23075107 9.75 33.5 C8.40772319 33.25816294 7.06527555 33.01727207 5.72265625 32.77734375 C2.47997662 32.19412799 -0.76067756 31.6015336 -4 31 C-4.20807162 22.91266073 -4.1516366 15.44648979 -2 7.625 C-1.71382812 6.50351563 -1.71382812 6.50351563 -1.421875 5.359375 C-0.96281245 3.56903105 -0.48375092 1.78383153 0 0 Z " fill="#92B6BB" transform="translate(14,84)"/>
<path d="M0 0 C4.30619814 1.09625344 7.12592195 3.56685328 10.4375 6.4375 C13.79790916 9.34107689 17.16905635 12.16429203 20.75390625 14.7890625 C27.58915761 19.81480035 32.44679887 23.68958064 35 32 C35.50405156 33.24433436 36.02085885 34.48354031 36.546875 35.71875 C37.11464558 37.0624737 37.68235361 38.40622383 38.25 39.75 C38.52134766 40.3884082 38.79269531 41.02681641 39.07226562 41.68457031 C40.52293379 45.25876178 41.32437031 48.13704444 41 52 C36.65274803 51.78412619 32.33179981 51.42451638 28 51 C26.6903125 50.87367187 25.380625 50.74734375 24.03125 50.6171875 C14.27372941 49.39898015 7.98458424 45.91283928 0.66796875 39.4453125 C-2.33395798 36.84411135 -5.49079779 34.43852459 -8.625 32 C-9.78393825 31.08343964 -10.94279813 30.16678018 -12.1015625 29.25 C-14.96585165 26.9707335 -14.96585165 26.9707335 -18 25 C-16.89352815 16.11615354 -8.86670571 8.41244578 -3 2 C-2.01 1.34 -1.02 0.68 0 0 Z " fill="#FCC423" transform="translate(41,43)"/>
<path d="M0 0 C12.69239324 -0.26411917 27.20702912 0.1516267 37 9 C38.76853568 10.44032583 40.53954947 11.87761207 42.3125 13.3125 C43.67761719 14.44945312 43.67761719 14.44945312 45.0703125 15.609375 C49.92411569 19.5700784 54.96045428 23.27970709 60 27 C59.15399639 33.05950087 55.85207762 36.44039791 52 41 C51.23300781 41.92554688 50.46601563 42.85109375 49.67578125 43.8046875 C48.89589844 44.71476562 48.11601562 45.62484375 47.3125 46.5625 C46.58675781 47.40941406 45.86101562 48.25632813 45.11328125 49.12890625 C43 51 43 51 39 51 C37.15991211 49.94946289 37.15991211 49.94946289 35.27734375 48.47265625 C34.57915527 47.93278076 33.8809668 47.39290527 33.16162109 46.83666992 C32.42766113 46.25119385 31.69370117 45.66571777 30.9375 45.0625 C30.18033691 44.46348877 29.42317383 43.86447754 28.64306641 43.24731445 C27.12460162 42.04491387 25.60828615 40.83979352 24.09423828 39.63183594 C22.32458315 38.25291604 20.53702078 36.95719561 18.68359375 35.6953125 C10.27103809 29.68132973 7.39773055 22.4149405 4 13 C3.566875 11.8759375 3.13375 10.751875 2.6875 9.59375 C0 2.50173611 0 2.50173611 0 0 Z " fill="#FCC423" transform="translate(130,133)"/>
<path d="M0 0 C6.02495624 0.71825289 12.00942133 1.60087869 18 2.5625 C19.30517578 2.77036133 19.30517578 2.77036133 20.63671875 2.98242188 C22.75800183 3.32042852 24.87902816 3.66004584 27 4 C27.33 3.34 27.66 2.68 28 2 C29.03665338 4.55707833 30.0543973 7.11918513 31.0625 9.6875 C31.35705078 10.40873047 31.65160156 11.12996094 31.95507812 11.87304688 C34.1479605 17.52294381 34.11284728 20.34575556 31.7421875 26 C29.58739789 29.46208875 27.77318069 32.32006796 24 34 C16.28446092 34.65528442 8.49247469 32.66467381 1 31 C-0.66595415 30.66312369 -2.3324181 30.32872405 -4 30 C-4 29.34 -4 28.68 -4 28 C4.33333333 24.66666667 12.66666667 21.33333333 21 18 C20.54149658 17.63237549 20.08299316 17.26475098 19.6105957 16.88598633 C17.5087535 15.19788215 15.41061448 13.50523466 13.3125 11.8125 C12.59126953 11.23435547 11.87003906 10.65621094 11.12695312 10.06054688 C7.19476528 6.88247724 3.49218656 3.65749716 0 0 Z " fill="#8A4E3F" transform="translate(55,91)"/>
<path d="M0 0 C1.25554687 0.20496094 2.51109375 0.40992187 3.8046875 0.62109375 C12.19011211 1.97611945 20.52864747 3.30562684 29 4 C27.42910419 7.14179162 24.817962 7.27466085 21.5625 8.375 C15.63279927 10.41223985 9.79628397 12.60936675 4 15 C7.52201984 18.62599091 11.2060426 21.92924172 15.125 25.125 C21.41071429 30.26785714 21.41071429 30.26785714 24 33 C14.59337993 32.3972149 5.32655869 31.32867987 -4 30 C-4.87202123 27.79731661 -5.72245702 25.58986134 -6.5625 23.375 C-7.03816406 22.14523438 -7.51382813 20.91546875 -8.00390625 19.6484375 C-9.05682071 15.79188022 -9.17706314 13.78982662 -8 10 C-6.40625 7.734375 -6.40625 7.734375 -4.5 5.75 C-1.93398912 3.09619063 -1.93398912 3.09619063 0 0 Z " fill="#874B3C" transform="translate(133,103)"/>
<path d="M0 0 C4.00331222 7.93316918 7.38625705 15.85595709 10.0859375 24.328125 C11.12677694 27.37057875 12.53466016 30.14258731 14 33 C14 33.99 14 34.98 14 36 C11.17957406 34.68934285 8.88196115 33.23223515 6.49609375 31.2421875 C5.84253906 30.70231201 5.18898437 30.16243652 4.515625 29.60620117 C3.82984375 29.03490479 3.1440625 28.4636084 2.4375 27.875 C-3.88327704 22.66714771 -10.29202896 17.70410681 -17 13 C-12.12577887 5.94829176 -8.35052201 2.52457642 0 0 Z " fill="#1F4813" transform="translate(125,122)"/>
<path d="M0 0 C2 2 2 2 2.1953125 4.8203125 C2.16050781 6.45613281 2.16050781 6.45613281 2.125 8.125 C2.10695313 9.22070312 2.08890625 10.31640625 2.0703125 11.4453125 C2.04710938 12.28835937 2.02390625 13.13140625 2 14 C2.91394531 14.19335938 3.82789062 14.38671875 4.76953125 14.5859375 C8.2104723 16.09212935 9.38892402 17.30812827 10.96728516 20.69775391 C13.99220979 28.79224714 13.99220979 28.79224714 12.01513672 33.19140625 C8.64820251 38.34965558 4.39312511 42.71212946 0 47 C-0.98253562 47.98621783 -1.96440626 48.97309906 -2.9453125 49.9609375 C-3.62335938 50.63382813 -4.30140625 51.30671875 -5 52 C-4.35150953 43.54147566 -3.21658242 35.19659145 -1.9375 26.8125 C-1.75123047 25.57435547 -1.56496094 24.33621094 -1.37304688 23.06054688 C-0.91820399 20.03992362 -0.46046929 17.01976976 0 14 C-3.3 13.67 -6.6 13.34 -10 13 C-3.84965831 3.40546697 -3.84965831 3.40546697 0 0 Z " fill="#2A0B20" transform="translate(89,112)"/>
<path d="M0 0 C4.6598048 2.5687512 8.60303906 5.81260306 12.6875 9.1875 C14.10783355 10.35185455 15.52840644 11.5159172 16.94921875 12.6796875 C17.63806152 13.24526367 18.3269043 13.81083984 19.03662109 14.39355469 C22.9950169 17.63233166 26.99782218 20.81557486 31 24 C26.40525211 30.64738441 23.15317624 34.41466018 15 36 C14.67 36.66 14.34 37.32 14 38 C13.63648437 36.94683594 13.27296875 35.89367187 12.8984375 34.80859375 C9.90614137 26.20222794 6.75459819 17.70005526 3.296875 9.26953125 C2.08262193 6.20829685 1.00830691 3.13431251 0 0 Z " fill="#1E4713" transform="translate(73,69)"/>
<path d="M0 0 C-1.52140452 3.42118944 -3.53360339 6.01466733 -5.9375 8.875 C-9.6503036 13.34600984 -13.28954056 17.86371391 -16.875 22.4375 C-17.5709729 23.32381104 -17.5709729 23.32381104 -18.28100586 24.22802734 C-21.30287547 28.08528682 -24.28174478 31.92261718 -27 36 C-28.18173274 31.85184166 -27.99339971 27.95437059 -27.75 23.6875 C-27.72292969 22.95337891 -27.69585937 22.21925781 -27.66796875 21.46289062 C-27.38685307 16.35293298 -26.65736809 12.4252637 -24 8 C-20.85546875 6.328125 -20.85546875 6.328125 -17.1875 5.25 C-13.53361008 4.13777627 -10.20354276 3.1043809 -6.80078125 1.359375 C-4 0 -4 0 0 0 Z " fill="#B40610" transform="translate(150,82)"/>
<path d="M0 0 C1.50337636 3.00675271 0.70410416 5.37984372 0.2578125 8.6875 C0.16998505 9.34580811 0.08215759 10.00411621 -0.0083313 10.68237305 C-0.19546166 12.07478301 -0.38563711 13.46678661 -0.57861328 14.85839844 C-0.87369839 16.99059493 -1.15830862 19.12399491 -1.44140625 21.2578125 C-2.85682263 31.71364526 -2.85682263 31.71364526 -4 34 C-4.22467831 35.53668865 -4.40796805 37.07968054 -4.5625 38.625 C-4.64628906 39.44226563 -4.73007813 40.25953125 -4.81640625 41.1015625 C-4.87699219 41.72804687 -4.93757813 42.35453125 -5 43 C-5.33 43 -5.66 43 -6 43 C-6 41.35 -6 39.7 -6 38 C-7.65 38 -9.3 38 -11 38 C-11.84026396 36.23244474 -12.67198722 34.46082737 -13.5 32.6875 C-13.9640625 31.70136719 -14.428125 30.71523437 -14.90625 29.69921875 C-16 27 -16 27 -16 24 C-16.99 23.67 -17.98 23.34 -19 23 C-18.01 22.67 -17.02 22.34 -16 22 C-15.32821146 20.33539122 -14.66266988 18.66825983 -14 17 C-12.41773065 14.92706176 -10.83254012 12.96143092 -9.125 11 C-6.0257398 7.37653259 -2.9573509 3.74139276 0 0 Z " fill="#290D21" transform="translate(128,63)"/>
<path d="M0 0 C0.99 0.33 1.98 0.66 3 1 C4.02734375 3.40625 4.02734375 3.40625 4.9375 6.5 C6.40518851 11.25440409 8.09880668 15.68484303 10.265625 20.16015625 C11 22 11 22 11 25 C11.66 25.33 12.32 25.66 13 26 C12.21625 26.763125 11.4325 27.52625 10.625 28.3125 C7.92742283 30.90891805 7.92742283 30.90891805 6 34 C2.52217636 32.45430061 -0.28320706 30.68068938 -3 28 C-3.33984375 25.0390625 -3.33984375 25.0390625 -2.9375 21.625 C-2.8034375 20.3978125 -2.669375 19.170625 -2.53125 17.90625 C-2.3559375 16.6171875 -2.180625 15.328125 -2 14 C-1.91234375 13.33355469 -1.8246875 12.66710937 -1.734375 11.98046875 C-1.20600885 7.97887214 -0.62421307 3.98769128 0 0 Z " fill="#074557" transform="translate(99,59)"/>
<path d="M0 0 C6.02495624 0.71825289 12.00942133 1.60087869 18 2.5625 C19.30517578 2.77036133 19.30517578 2.77036133 20.63671875 2.98242188 C22.75800183 3.32042852 24.87902816 3.66004584 27 4 C27.33 3.34 27.66 2.68 28 2 C28.67305018 3.60149886 29.33822227 5.20631029 30 6.8125 C30.37125 7.70582031 30.7425 8.59914063 31.125 9.51953125 C32 12 32 12 32 15 C30.75579353 15.5345256 29.50429064 16.05208611 28.25 16.5625 C27.55390625 16.85253906 26.8578125 17.14257812 26.140625 17.44140625 C23.60687583 18.10258532 22.46699986 17.81136755 20 17 C17.63514516 15.30186327 15.37937655 13.58317668 13.125 11.75 C12.52558594 11.27175781 11.92617187 10.79351562 11.30859375 10.30078125 C9.53043671 8.87748418 7.76397202 7.4408242 6 6 C5.41186523 5.52498047 4.82373047 5.04996094 4.21777344 4.56054688 C2.79239018 3.39713952 1.393341 2.20159683 0 1 C0 0.67 0 0.34 0 0 Z " fill="#918D1E" transform="translate(55,91)"/>
<path d="M0 0 C6.76595745 3.38297872 6.76595745 3.38297872 9 6 C9.35399792 9.74821327 8.64173247 13.30898971 8 17 C7.87995605 17.71671875 7.75991211 18.4334375 7.63623047 19.171875 C6.8063618 24.12408252 5.92011089 29.06380761 5 34 C1.92636181 30.46897517 0.5319599 26.473532 -1 22.125 C-2.7391285 17.24275904 -4.57749269 12.59987995 -7 8 C-4.69 5.36 -2.38 2.72 0 0 Z " fill="#074456" transform="translate(108,135)"/>
<path d="M0 0 C3.5 0.375 3.5 0.375 7.5 1.375 C7.17 5.005 6.84 8.635 6.5 12.375 C5.70078125 12.67792969 4.9015625 12.98085937 4.078125 13.29296875 C-3.50715537 16.1864149 -11.02423351 19.20958536 -18.5 22.375 C-18.5 18.02376195 -15.88680391 15.72723328 -13.25 12.5 C-12.75886719 11.88769531 -12.26773438 11.27539062 -11.76171875 10.64453125 C-10.79600744 9.44189876 -9.82475919 8.24368858 -8.84765625 7.05029297 C-7.64194969 5.55145992 -6.49620129 4.0048514 -5.359375 2.453125 C-3.5 0.375 -3.5 0.375 0 0 Z " fill="#B40710" transform="translate(81.5,124.625)"/>
<path d="M0 0 C5.22339146 3.86530968 10.3759738 7.8168484 15.5 11.8125 C16.45350342 12.55077026 16.45350342 12.55077026 17.42626953 13.30395508 C18.96978802 14.51215458 20.48757421 15.7530984 22 17 C22 17.33 22 17.66 22 18 C17.66131761 17.72197314 13.33203634 17.36645625 9 17 C8.32694824 16.95681641 7.65389648 16.91363281 6.96044922 16.86914062 C-4.85769689 16.09528337 -4.85769689 16.09528337 -7.61328125 13.453125 C-9.03121689 10.30813031 -9 7.41771063 -9 4 C-6.03 2.68 -3.06 1.36 0 0 Z " fill="#918D1C" transform="translate(135,118)"/>
<path d="M0 0 C0.4640625 0.9590625 0.4640625 0.9590625 0.9375 1.9375 C1.8345163 3.93610821 1.8345163 3.93610821 3 5 C3.04063832 6.66617115 3.042721 8.33388095 3 10 C0.03 9.67 -2.94 9.34 -6 9 C-6.33 12.3 -6.66 15.6 -7 19 C-10.56521654 17.21739173 -13.71455357 15.24007711 -17 13 C-12.12577887 5.94829176 -8.35052201 2.52457642 0 0 Z " fill="#06330D" transform="translate(125,122)"/>
<path d="M0 0 C3.90432869 1.95216435 6.03839944 3.87386607 9 7 C7.78258021 8.46815389 6.55051239 9.92416847 5.3125 11.375 C4.62800781 12.18710938 3.94351563 12.99921875 3.23828125 13.8359375 C0.03280951 16.9351196 -2.56001724 18 -7 18 C-7.33 18.66 -7.66 19.32 -8 20 C-9.19287411 16.12315913 -10 13.08378077 -10 9 C-7.03 9 -4.06 9 -1 9 C-0.67 6.03 -0.34 3.06 0 0 Z " fill="#0B320C" transform="translate(95,87)"/>
<path d="M0 0 C0.66 0.66 1.32 1.32 2 2 C1.98252073 4.75589777 1.86136729 7.38786676 1.625 10.125 C1.56828125 10.87910156 1.5115625 11.63320312 1.453125 12.41015625 C1.3115535 14.27418096 1.15700041 16.13721137 1 18 C0.67 16.68 0.34 15.36 0 14 C-3.3 13.67 -6.6 13.34 -10 13 C-3.84965831 3.40546697 -3.84965831 3.40546697 0 0 Z " fill="#660509" transform="translate(89,112)"/>
<path d="M0 0 C0.33 0 0.66 0 1 0 C1 1.65 1 3.3 1 5 C3.97 5.33 6.94 5.66 10 6 C8.45629968 9.08740064 7.06884506 11.37817354 5 14.0625 C3.24878722 16.34345464 1.59742149 18.60386777 0 21 C-0.82514784 18.16615892 -1.07936233 15.83064749 -0.87890625 12.890625 C-0.83056641 12.13652344 -0.78222656 11.38242188 -0.73242188 10.60546875 C-0.67634766 9.82816406 -0.62027344 9.05085938 -0.5625 8.25 C-0.51029297 7.45722656 -0.45808594 6.66445312 -0.40429688 5.84765625 C-0.27510676 3.89806003 -0.13830035 1.94897114 0 0 Z " fill="#670509" transform="translate(123,97)"/>
<path d="M0 0 C0.309375 0.639375 0.61875 1.27875 0.9375 1.9375 C1.8345163 3.93610821 1.8345163 3.93610821 3 5 C3.04063832 6.66617115 3.042721 8.33388095 3 10 C0.03 9.67 -2.94 9.34 -6 9 C-6.33 10.32 -6.66 11.64 -7 13 C-6.88541307 11.56163249 -6.75790884 10.12429034 -6.625 8.6875 C-6.55539063 7.88699219 -6.48578125 7.08648437 -6.4140625 6.26171875 C-6 4 -6 4 -4 1 C-1.875 0.3125 -1.875 0.3125 0 0 Z " fill="#11340D" transform="translate(125,122)"/>
<path d="M0 0 C-0.144375 0.804375 -0.28875 1.60875 -0.4375 2.4375 C-1.09688339 6.61359481 -1.56091353 10.79598059 -2 15 C-2.33 15 -2.66 15 -3 15 C-3 13.35 -3 11.7 -3 10 C-4.65 10 -6.3 10 -8 10 C-8.99 7.69 -9.98 5.38 -11 3 C-9.54293274 2.49632243 -8.08429904 1.99717444 -6.625 1.5 C-5.81289062 1.2215625 -5.00078125 0.943125 -4.1640625 0.65625 C-2 0 -2 0 0 0 Z " fill="#28040A" transform="translate(125,91)"/>
<path d="M0 0 C0.33 0 0.66 0 1 0 C1 1.65 1 3.3 1 5 C2.98 5.66 4.96 6.32 7 7 C7.33 8.65 7.66 10.3 8 12 C6.70990357 12.50403768 5.41786211 13.00309926 4.125 13.5 C3.40570313 13.7784375 2.68640625 14.056875 1.9453125 14.34375 C0 15 0 15 -2 15 C-2.042721 13.33388095 -2.04063832 11.66617115 -2 10 C-1.67 9.67 -1.34 9.34 -1 9 C-0.76807135 7.48530552 -0.58784762 5.96245438 -0.4375 4.4375 C-0.35371094 3.61121094 -0.26992187 2.78492187 -0.18359375 1.93359375 C-0.12300781 1.29550781 -0.06242187 0.65742187 0 0 Z " fill="#27040A" transform="translate(90,121)"/>
<path d="M0 0 C1.14926266 0.95421808 2.29430541 1.91352045 3.4375 2.875 C4.07558594 3.40867187 4.71367187 3.94234375 5.37109375 4.4921875 C7 6 7 6 8 8 C1.375 11 1.375 11 -2 11 C-3.35384615 4.6 -3.35384615 4.6 -1.5625 1.5625 C-1.046875 1.046875 -0.53125 0.53125 0 0 Z " fill="#853B0A" transform="translate(127,111)"/>
<path d="M0 0 C0.33 1.98 0.66 3.96 1 6 C-0.32 6.99 -1.64 7.98 -3 9 C-5.31 7.02 -7.62 5.04 -10 3 C-9 1 -9 1 -6.6875 -0.1875 C-3.88010429 -1.03624754 -2.698065 -0.99928333 0 0 Z " fill="#853C0A" transform="translate(88,107)"/>
<path d="M0 0 C1.875 0.6875 1.875 0.6875 3.875 1.6875 C3.30176569 5.55683162 1.48546448 7.83972057 -1.125 10.6875 C-1.785 10.6875 -2.445 10.6875 -3.125 10.6875 C-4.115 7.7175 -5.105 4.7475 -6.125 1.6875 C-2.125 -0.3125 -2.125 -0.3125 0 0 Z " fill="#040511" transform="translate(104.125,131.3125)"/>
<path d="M0 0 C1.65 0 3.3 0 5 0 C5 3.96 5 7.92 5 12 C3.20931427 9.3139714 2.33944209 7.3373411 1.375 4.3125 C1.11460938 3.50425781 0.85421875 2.69601563 0.5859375 1.86328125 C0.39257812 1.24839844 0.19921875 0.63351563 0 0 Z " fill="#160205" transform="translate(117,101)"/>
<path d="M0 0 C0.33 0 0.66 0 1 0 C1.20496094 0.68707031 1.40992187 1.37414062 1.62109375 2.08203125 C1.89050781 2.98308594 2.15992187 3.88414063 2.4375 4.8125 C2.83775391 6.15248047 2.83775391 6.15248047 3.24609375 7.51953125 C3.80387873 9.35473055 4.39344575 11.18033726 5 13 C3.35 12.67 1.7 12.34 0 12 C0 8.04 0 4.08 0 0 Z " fill="#140205" transform="translate(91,114)"/>
<path d="M0 0 C1.24546405 2.49092811 0.7767578 3.41080733 0 6 C-2.31 6 -4.62 6 -7 6 C-3.375 1.125 -3.375 1.125 0 0 Z " fill="#032208" transform="translate(119,124)"/>
<path d="M0 0 C-0.49831724 3.68754757 -1.10067643 5.60490662 -4 8 C-4.33 5.69 -4.66 3.38 -5 1 C-2 0 -2 0 0 0 Z " fill="#141404" transform="translate(93,104)"/>
<path d="M0 0 C1.98 0.495 1.98 0.495 4 1 C4 2.32 4 3.64 4 5 C2.35 5.33 0.7 5.66 -1 6 C-0.67 4.02 -0.34 2.04 0 0 Z " fill="#121504" transform="translate(121,118)"/>
<path d="M0 0 C2.97 0.495 2.97 0.495 6 1 C4.68 2.65 3.36 4.3 2 6 C1.01 5.67 0.02 5.34 -1 5 C-0.67 3.35 -0.34 1.7 0 0 Z " fill="#032408" transform="translate(94,97)"/>
</svg>
